<?xml version="1.0" encoding="UTF-8" standalone="no"?>
<!-- Created with Inkscape (http://www.inkscape.org/) -->

<svg
   width="16"
   height="16"
   viewBox="0 0 16 16"
   version="1.1"
   id="svg1"
   xml:space="preserve"
   inkscape:version="1.4 (86a8ad7, 2024-10-11)"
   sodipodi:docname="godot-vlc.svg"
   xmlns:inkscape="http://www.inkscape.org/namespaces/inkscape"
   xmlns:sodipodi="http://sodipodi.sourceforge.net/DTD/sodipodi-0.dtd"
   xmlns="http://www.w3.org/2000/svg"
   xmlns:svg="http://www.w3.org/2000/svg"><sodipodi:namedview
     id="namedview1"
     pagecolor="#ffffff"
     bordercolor="#000000"
     borderopacity="0.25"
     inkscape:showpageshadow="2"
     inkscape:pageopacity="0.0"
     inkscape:pagecheckerboard="0"
     inkscape:deskcolor="#d1d1d1"
     inkscape:document-units="px"
     inkscape:zoom="45.254834"
     inkscape:cx="9.1150483"
     inkscape:cy="7.9439027"
     inkscape:window-width="1920"
     inkscape:window-height="1057"
     inkscape:window-x="-8"
     inkscape:window-y="-8"
     inkscape:window-maximized="1"
     inkscape:current-layer="g1" /><defs
     id="defs1" /><g
     inkscape:label="图层 1"
     inkscape:groupmode="layer"
     id="layer1"><g
       id="g1"
       transform="scale(0.03125)"><rect
         width="512"
         height="512"
         rx="15.000001%"
         fill="#ffffff"
         id="rect1"
         x="0"
         y="0"
         style="fill:#ffffff;fill-opacity:0" /><g
         fill="#f7901e"
         id="g2"
         transform="matrix(1.2799985,0,0,1.2799985,-71.786741,-51.199949)"
         style="fill:#eec315;fill-opacity:1"><path
           d="m 437,400 -36,-94 c -3,-10 -13,-16 -23,-16 H 134 c -10,0 -20,6 -23,16 l -36,94 c -2,3 -2,7 -2,11 0,16 13,29 29,29 h 308 a 29,29 0 0 0 27,-40 z"
           id="path1"
           style="fill:#eec315;fill-opacity:1" /><path
           d="M 299,109 284,58 C 281,47 271,40 260,40 h -8 c -11,0 -21,7 -24,18 l -15,51 a 307,307 0 0 0 86,0 z m -43,74 c -24,0 -46,-2 -64,-6 l -19,65 c 20,8 49,13 83,13 34,0 63,-5 83,-13 l -20,-65 c -17,4 -39,6 -63,6 z"
           id="path2"
           style="fill:#eec315;fill-opacity:1" /></g><g
         fill="#f2f2f2"
         id="g4"
         transform="matrix(1.2799985,0,0,1.2799985,-71.786741,-51.199949)"><path
           d="m 319,177 -20,-68 a 307,307 0 0 1 -86,0 l -21,68 c 18,4 40,6 64,6 24,0 46,-2 63,-6 z"
           id="path3" /><path
           d="m 173,242 -18,62 c 19,14 55,23 101,23 46,0 82,-9 101,-23 l -18,-62 c -20,8 -49,13 -83,13 -34,0 -63,-5 -83,-13 z"
           id="path4" /></g></g></g></svg>
