<?xml version="1.0" encoding="UTF-8" standalone="no"?>
<svg
   width="16"
   height="16"
   version="1.1"
   id="svg1"
   sodipodi:docname="VideoStreamPlayer.svg"
   xml:space="preserve"
   inkscape:version="1.4.2 (f4327f4, 2025-05-13)"
   xmlns:inkscape="http://www.inkscape.org/namespaces/inkscape"
   xmlns:sodipodi="http://sodipodi.sourceforge.net/DTD/sodipodi-0.dtd"
   xmlns="http://www.w3.org/2000/svg"
   xmlns:svg="http://www.w3.org/2000/svg"><defs
     id="defs1" /><sodipodi:namedview
     id="namedview1"
     pagecolor="#ffffff"
     bordercolor="#000000"
     borderopacity="0.25"
     inkscape:showpageshadow="2"
     inkscape:pageopacity="0.0"
     inkscape:pagecheckerboard="0"
     inkscape:deskcolor="#d1d1d1"
     inkscape:zoom="2.8284271"
     inkscape:cx="198.16667"
     inkscape:cy="-13.258252"
     inkscape:window-width="2560"
     inkscape:window-height="1369"
     inkscape:window-x="-8"
     inkscape:window-y="-8"
     inkscape:window-maximized="1"
     inkscape:current-layer="svg1" /><path
     fill="#8eef97"
     d="M 3,1 C 1.8954305,1 1,1.8954305 1,3 v 10 c 0,1.104569 0.8954305,2 2,2 h 10 c 1.104569,0 2,-0.895431 2,-2 V 3 C 15,1.8954305 14.104569,1 13,1 Z m 0,2 h 10 v 8 H 3 Z"
     id="path1"
     inkscape:label="path1"
     sodipodi:nodetypes="sssssssssccccc" /><g
     id="g9"
     transform="matrix(1.0958004,0,0,1.0958004,-0.76630718,-0.6563841)"><path
       d="m 371.61255,330.75395 3.0694,11.12658 c 0.3,1.195 0.63946,2.63975 0.63946,3.83675 0,43.659 -107.09396,44.88999 -119.32296,44.88999 -12.23,0 -119.32296,-1.23099 -119.32296,-44.88999 0,-1.197 0.34046,-2.64075 0.63946,-3.83675 l 3.0694,-11.12658 h -33.50762 c -5.635,0 -10.765742,3.25496 -13.300742,8.31296 L 33.850563,458.64565 c -2.325,4.637 -2.073542,10.18266 0.639458,14.57966 2.715,4.396 7.62917,7.03404 12.78917,7.03404 H 464.71771 c 5.16,0 10.04117,-2.64104 12.78917,-7.03404 2.709,-4.429 2.93946,-9.91066 0.63946,-14.57966 L 418.42091,339.06691 c -2.535,-5.058 -7.66573,-8.31296 -13.30073,-8.31296 z"
       style="display:inline;fill:#8eef97;fill-opacity:1"
       id="path9"
       transform="matrix(0.01527171,0,0,0.01527171,4.0904659,3.0093685)" /><path
       d="m 256,106.467 c -19.387,0 -37.881,-1.496 -53.387,-4.187 l 10.439,-37.982 c 5.666,-20.03 22.668,-32.592 42.947,-32.592 20.279,0 37.279,12.562 42.945,32.297 l 10.441,38.277 c -15.506,2.691 -33.998,4.187 -53.385,4.187 z m 0,0"
       style="fill:#8eef97;fill-opacity:1"
       id="path4"
       transform="matrix(0.01527171,0,0,0.01527171,4.0904659,3.0093685)" /><path
       d="m 354.123,266.166 c -14.611,11.369 -53.086,19.739 -98.123,19.739 -45.037,0 -83.513,-8.37 -98.124,-19.739 l 21.772,-79.546 c 18.789,5.975 46.228,9.565 76.351,9.565 30.123,0 57.563,-3.591 76.35,-9.565 z m 0,0"
       style="fill:#8eef97;fill-opacity:1"
       id="path5"
       transform="matrix(0.01527171,0,0,0.01527171,4.0904659,3.0093685)" /></g></svg>
